PathFileType	4	(X/Y/Z)	Apose_0-50.trc
DataRate	CameraRate	NumFrames	NumMarkers	Units	OrigDataRate	OrigDataStartFrame	OrigNumFrames
30	30	5	22	m	30	20	50
Frame#	Time	Hip			RHip			RKnee			RAnkle			RBigToe			RSmallToe			RHeel			LHip			LKnee			LAnkle			LBigToe			LSmallToe			LHeel			Neck			Head			Nose			RShoulder			RElbow			RWrist			LShoulder			LElbow			LWrist		
		X1	Y1	Z1	X2	Y2	Z2	X3	Y3	Z3	X4	Y4	Z4	X5	Y5	Z5	X6	Y6	Z6	X7	Y7	Z7	X8	Y8	Z8	X9	Y9	Z9	X10	Y10	Z10	X11	Y11	Z11	X12	Y12	Z12	X13	Y13	Z13	X14	Y14	Z14	X15	Y15	Z15	X16	Y16	Z16	X17	Y17	Z17	X18	Y18	Z18	X19	Y19	Z19	X20	Y20	Z20	X21	Y21	Z21	X22	Y22	Z22
21	0.7	0.03920368137304333	0.9196404401292502	0.35656273266160193	0.03074061488489206	0.8881174523550319	0.4715979187948652	0.004969259189545924	0.5106662441433916	0.5015576260450706	-0.005958985702102419	0.10548941296987946	0.5170464496311865	0.20150543633020507	0.042363236728629836	0.5638805505237906	0.14583543666426343	0.040724047831594036	0.6164646279962399	-0.04140633683932366	0.041674846164489465	0.5025440155459905	0.03061409536747235	0.8874724476254734	0.2456114877391696	0.016025126859973246	0.5119319907345495	0.2246778885639408	0.0034701702137857316	0.1125493992078869	0.20809531165164236	0.21769569318924933	0.04472344897937425	0.18282748776252256	0.1656953283448689	0.042000090733238675	0.13009404082392512	-0.03154384107509157	0.0466313522361936	0.22551139060427586	0.07048749037967035	1.589767254397675	0.35344928157419186	0.2531309048115673	1.7621414415370493	0.3287462594999243	0.23691366820329735	1.5785617235537999	0.3248336577799875	0.02814900801348635	1.492043664043829	0.5369410475258841	0.0601420748165161	1.2413574468659883	0.7137280057426743	0.12182157681010894	1.0496571210675023	0.8909381128992567	0.014450303469575496	1.4765096457785538	0.14168713991208998	0.020797173253027226	1.2260406526206986	0.0010864721510770764	0.07845018988724574	1.0160249945152189	-0.14627128250596688
22	0.7333333333333333	0.039768756205531205	0.919582062617344	0.3564279439263547	0.031177439889442424	0.8881196310144592	0.4711741956679245	0.005463705122848197	0.510434408364014	0.500906324805871	-0.005648984246762324	0.10530065545296143	0.516874063024602	0.20180071097558844	0.04263252316261365	0.5636303421879518	0.14604823986419235	0.04087070956939579	0.6163607209672917	-0.04001996778008547	0.04035170489410068	0.5012485268383304	0.031123534427888434	0.8876232334682215	0.24544110443946562	0.016533083893428908	0.5118591802140012	0.22444784604275786	0.0033669231515859152	0.11232597616175981	0.2084522410579975	0.21761773770679946	0.044555815808908945	0.18313362653695406	0.16576535147936772	0.04192392244019974	0.13076685254827314	-0.03111456165672078	0.04668622314194583	0.2255319959068445	0.06942402637143752	1.589423117022202	0.3529511626903808	0.24886940592629475	1.7612722359916932	0.3317235860730951	0.23689870178847078	1.57963448535395	0.32492032441419194	0.027934256924019144	1.4921295977095894	0.5365336442915746	0.06015104967448563	1.2411989585898837	0.7132922038773597	0.12241413162847131	1.0495636175486034	0.8903517955679965	0.014642706070225692	1.4770099047664342	0.14183071922556997	0.02166890798415428	1.2262606711729649	0.0008109967864046877	0.07903162705905574	1.0164380196022977	-0.1473690766824347
23	0.7666666666666667	0.0401074292004287	0.9195357986622599	0.35629218017789926	0.031594974179999534	0.887794253947445	0.47044736504486556	0.0058266641984435095	0.5098852110840892	0.5001879696416158	-0.005753375583690647	0.105133408529837	0.5167477136450206	0.20209037701544857	0.04290809456792375	0.5632740427224623	0.14596425756500425	0.04044833573645391	0.6163569460092633	-0.03986643635890861	0.03986859747874014	0.5008152688735938	0.03172068239084691	0.8874977905396384	0.24534564218157529	0.017053240481740842	0.5115120841800165	0.2241963806138837	0.0034394898324391614	0.11234452077029605	0.20895057386475438	0.2174978604372582	0.04469093319243103	0.18328766488573886	0.16575041336030907	0.0420565609410152	0.13119540257036771	-0.03095178132282756	0.04704736494343417	0.22560457305729412	0.06801001234812622	1.5885090016777659	0.3524240264188859	0.24582499353672974	1.7606164982797992	0.3336372348232009	0.23739294863028848	1.58068027341825	0.32511251839153843	0.027413205391022846	1.4921556170123575	0.5362644212055628	0.0602092456321175	1.2408541485085183	0.7130006563529855	0.12305320901019812	1.0494300538125074	0.8900170211789313	0.015083953098748638	1.4773955673297061	0.14199789990449652	0.022553576822842075	1.2261026271246096	0.0004057763530672347	0.07974642599154322	1.0167336553163884	-0.148325113749384
24	0.8	0.040230965623703756	0.9195886389319166	0.356031525210879	0.03205878966603027	0.8872485348259466	0.4694530881531011	0.0059732045020097066	0.5091819791136095	0.4994716558250101	-0.006174861767128418	0.10504100395623332	0.5165836586842426	0.20227034446467534	0.04308195664361728	0.5629530549500791	0.14559773034140389	0.039256595470548244	0.6165124715856556	-0.04094236751979506	0.0403243759613066	0.5012696068140827	0.03241337803933201	0.8871412241882818	0.2452601583093202	0.01757526967832891	0.5109501637818537	0.22402973269513676	0.0038494901460663575	0.1124047134917322	0.20949781912197876	0.21730270055387887	0.04505770187220691	0.18328456266628484	0.1656079206263638	0.04229462642911291	0.13137444578255286	-0.031075441047564344	0.04763763810742227	0.22573460527147898	0.06621023624769941	1.5870464557689994	0.35186111288122224	0.2436629292513722	1.7605774506199823	0.3345120277457493	0.23813489813881483	1.5817231282302444	0.3253611808783349	0.0266779824709089	1.4921401107535954	0.5361822801592628	0.060303747230574745	1.2403979196605217	0.7127878668643784	0.12363153099789204	1.0493138637619925	0.8899354164799854	0.01583595294171155	1.4777550615630677	0.1420279818070152	0.023422277254424622	1.225746132874375	-4.90204233091768e-05	0.08038966146400106	1.0169257794973463	-0.14901414260012033
25	0.8333333333333334	0.04026184380677148	0.9197027903503396	0.3556433431486659	0.03259636435838393	0.8866079248300018	0.468403734789978	0.00592757668890471	0.5085098321903876	0.49887586579537796	-0.006680146783658555	0.10506427476982524	0.5163404454627379	0.20231831897775965	0.0431244992983022	0.5627547972278295	0.14505108563863242	0.037150719886613684	0.6169450420776742	-0.042828069472170716	0.0415100589084837	0.5022815813788586	0.03312027249670277	0.8866380621882619	0.24517110056426836	0.018071964835850197	0.5103230140501394	0.2239582293589587	0.0044743324718034124	0.11248158792914319	0.21001726736795512	0.21698651636327604	0.045507022904647046	0.1831429753220911	0.16532099831918765	0.042519159080567775	0.1313376228565184	-0.03137856189934315	0.04832801357608002	0.22589504389827317	0.06431292553100892	1.5852861891927208	0.35134642419630574	0.2420164063280278	1.7615357196199688	0.334580526115987	0.23875261861862035	1.5827183299478613	0.32555897571212816	0.025917899984291375	1.4921029082466848	0.5362740736808466	0.06043805860512766	1.2399632801870752	0.7126101406904302	0.12414821852239333	1.0492484461397906	0.8900487246273793	0.016827097338981783	1.4781223016006375	0.14186662378587878	0.024280226107351154	1.2253405529832442	-0.0005009002337189528	0.08081517390025318	1.0170460548743256	-0.14937212269369535
